# xmcd
#
# Track frame offsets:
# 150
# 22909
# 36341
# 95683
# 122944
# 162509
# 174762
# 214610
# 254870
#
# Disc length: 4423 seconds
#
#
# Revision: 0
# Processed by: cddbd v1.5.2PL0 Copyright (c) Steve Scherf et al.
# Submitted via: FreeRIP 2.96 
#
DISCID=7b114509
DTITLE=Petra Oelker - Die kleinne Madonna CD6
DYEAR=2004
DGENRE=Hörbuch
TTITLE0=43 Als Jessy zum ersten Mal erwachte
TTITLE1=44 Danke Frau Stern, es ist wirklich sehr freundlich
TTITLE2=45 Sven Finke war nicht unbedingt das, was man
TTITLE3=46 Ina ! Roland Eisner stuermte durch die Diele
TTITLE4=47 Aber ich muss ihn unbedingt sprechen
TTITLE5=48 Es war ihr weder gelungen, die Tuer zu oeffnen
TTITLE6=49 Haftbefehl, fragte Sabrowski
TTITLE7=50 Max Kleve rieb sich immer noch die Fingerkuppen
TTITLE8=51 Epilog: Auch an diesem Tag empfand
EXTD=gelesen von Nina Petri
EXTT0=
EXTT1=
EXTT2=
EXTT3=
EXTT4=
EXTT5=
EXTT6=
EXTT7=
EXTT8=
PLAYORDER=
